<?xml version="1.0" encoding="utf-8"?>
<!-- Generator: Adobe Illustrator 22.0.1, SVG Export Plug-In . SVG Version: 6.00 Build 0)  -->
<svg version="1.1" id="Layer_1" xmlns="http://www.w3.org/2000/svg" xmlns:xlink="http://www.w3.org/1999/xlink" x="0px" y="0px"
	 viewBox="0 0 258.6 77.3" style="enable-background:new 0 0 258.6 77.3;" xml:space="preserve">
<style type="text/css">
	.st0{fill-rule:evenodd;clip-rule:evenodd;}
</style>
<path class="st0" d="M10.3,16.8h2.4l5.8-15.1h-14L10.3,16.8L10.3,16.8z M-0.1,70.8v5.5h23v-5.5h-4.4V21.7h-14v49.1H-0.1L-0.1,70.8z"
	/>
<polygon points="49.1,32.3 56.3,32.3 56.3,21.8 49.1,21.8 49.1,9.4 35.1,9.4 35.1,21.8 27.8,21.8 27.8,32.3 35.1,32.3 35.1,77.7 
	49.1,74.2 49.1,32.3 "/>
<path class="st0" d="M73.8,16.8h2.4L82,1.7h-14L73.8,16.8L73.8,16.8z M63.4,70.8v5.5h23v-5.5H82V21.7h-14v49.1H63.4L63.4,70.8z"/>
<path class="st0" d="M128.6,24.3c-2.6-2.1-6.7-3.8-11.8-3.8c-17.4,0-24.1,14.3-24.1,28.3c0,17.4,7.8,28.3,24.1,28.3
	c7.7,0,13-3.2,14.8-4.4l10.9,4.1V0.2h-14.1C128.5,0.2,128.6,7,128.6,24.3L128.6,24.3z M128.6,43.8v11c0,7.9-4.4,11.1-11,11.1
	c-6,0-10.9-2.5-10.9-17.5c0-13.2,5.6-16.4,11.5-16.4C124.3,32,128.6,35.6,128.6,43.8L128.6,43.8z"/>
<path class="st0" d="M168.2,53.3H201v-6.8c0-13.6-7.1-25.1-22.9-25.1c-14.3,0-24.3,10.3-24.3,28c0,17.6,10,28,24.3,28
	c4.6,0,12.2-0.5,20.3-2.1V61.9c-8.3,2.4-11.3,3.9-20.4,3.9C172,65.8,168.6,61.3,168.2,53.3L168.2,53.3z M177.8,32.2
	c5.3,0,8.5,2.9,8.8,11.1h-18.1C168.8,35.1,172.3,32.2,177.8,32.2L177.8,32.2z"/>
<path d="M224.9,26.2l-12.8-4.8c0,0,0,36.8,0,55h14V41.8c0-6.3,5.1-9.3,10.6-9.3c5.5,0,8.3,2.5,8.3,9.3v35.9l14-3.5V39.1
	c0-11-7.4-17.7-20-17.7C232.4,21.4,228.3,22.7,224.9,26.2L224.9,26.2z"/>
</svg>
